<svg width="349" height="323" viewBox="0 0 349 323" fill="none" xmlns="http://www.w3.org/2000/svg">
<ellipse cx="162" cy="252" rx="45" ry="7" fill="#EEEEEE"/>
<path d="M209.409 156.443C213.774 158.254 213.774 164.429 209.409 166.24C201.5 169.52 192.184 174.839 183.511 183.511C174.839 192.184 169.52 201.5 166.24 209.409C164.429 213.774 158.254 213.774 156.443 209.409C153.163 201.5 147.844 192.184 139.172 183.511C130.501 174.841 121.183 169.52 113.274 166.24C108.909 164.429 108.909 158.254 113.274 156.443C121.183 153.163 130.499 147.844 139.172 139.172C147.842 130.501 153.163 121.183 156.443 113.274C158.254 108.909 164.429 108.909 166.24 113.274C169.52 121.183 174.839 130.499 183.511 139.172C192.182 147.842 201.5 153.163 209.409 156.443Z" fill="url(#paint0_linear_1540_5493)"/>
<path d="M258.129 120.102C260.126 120.93 260.126 123.753 258.129 124.581C254.513 126.08 250.255 128.514 246.289 132.476C242.324 136.441 239.893 140.7 238.394 144.316C237.566 146.312 234.744 146.312 233.915 144.316C232.416 140.7 229.983 136.441 226.02 132.476C222.055 128.511 217.796 126.08 214.18 124.581C212.184 123.753 212.184 120.93 214.18 120.102C217.796 118.603 222.055 116.17 226.02 112.207C229.985 108.242 232.416 103.983 233.915 100.367C234.744 98.3708 237.566 98.3708 238.394 100.367C239.893 103.983 242.327 108.242 246.289 112.207C250.255 116.172 254.513 118.603 258.129 120.102Z" fill="url(#paint1_linear_1540_5493)"/>
<defs>
<linearGradient id="paint0_linear_1540_5493" x1="134.564" y1="188.12" x2="188.12" y2="134.564" gradientUnits="userSpaceOnUse">
<stop stop-color="#0069B4"/>
<stop offset="1" stop-color="#008CC4"/>
</linearGradient>
<linearGradient id="paint1_linear_1540_5493" x1="223.913" y1="134.584" x2="248.397" y2="110.099" gradientUnits="userSpaceOnUse">
<stop stop-color="#00A8E8"/>
<stop offset="1" stop-color="#008CC4"/>
</linearGradient>
</defs>
</svg>
